<svg version="1.1" id="Layer_1" xmlns="http://www.w3.org/2000/svg" xmlns:xlink="http://www.w3.org/1999/xlink" x="0px" y="0px"
	 viewBox="0 0 512 512" style="enable-background:new 0 0 512 512;" xml:space="preserve" height="25">
<g>
	<path style="fill:#11544F;" d="M419.73,512H119.891c-32.787,0-59.46-26.674-59.46-59.46V59.46C60.431,26.674,87.104,0,119.891,0
		H419.73c32.787,0,59.46,26.674,59.46,59.46V452.54C479.189,485.326,452.516,512,419.73,512z M119.891,28.499
		c-17.071,0-30.961,13.889-30.961,30.961V452.54c0,17.071,13.889,30.961,30.961,30.961H419.73c17.071,0,30.961-13.889,30.961-30.961
		V59.46c0-17.071-13.889-30.961-30.961-30.961H119.891z"/>
	<path style="fill:#11544F;" d="M103.342,103.708H47.059c-7.869,0-14.249-6.381-14.249-14.249s6.381-14.249,14.249-14.249h56.283
		c7.869,0,14.249,6.381,14.249,14.249S111.212,103.708,103.342,103.708z"/>
	<path style="fill:#11544F;" d="M103.342,214.736H47.059c-7.869,0-14.249-6.381-14.249-14.249s6.381-14.249,14.249-14.249h56.283
		c7.869,0,14.249,6.381,14.249,14.249S111.212,214.736,103.342,214.736z"/>
	<path style="fill:#11544F;" d="M103.342,325.762H47.059c-7.869,0-14.249-6.381-14.249-14.249c0-7.869,6.381-14.25,14.249-14.25
		h56.283c7.869,0,14.249,6.381,14.249,14.25C117.591,319.381,111.212,325.762,103.342,325.762z"/>
	<path style="fill:#11544F;" d="M103.342,436.79H47.059c-7.869,0-14.249-6.381-14.249-14.249c0-7.869,6.381-14.25,14.249-14.25
		h56.283c7.869,0,14.249,6.381,14.249,14.25C117.591,430.409,111.212,436.79,103.342,436.79z"/>
</g>
<path style="fill:#6AB797;" d="M354.844,199H184.776c-8.52,0-15.425-6.907-15.425-15.425v-72.459c0-8.52,6.907-15.425,15.425-15.425
	h170.068c8.52,0,15.425,6.907,15.425,15.425v72.459C370.269,192.093,363.364,199,354.844,199z"/>
<g>
	<path style="fill:#11544F;" d="M354.842,213.249H184.775c-16.363,0-29.675-13.312-29.675-29.675v-72.459
		c0-16.363,13.312-29.675,29.675-29.675h170.068c16.363,0,29.675,13.312,29.675,29.675v72.459
		C384.518,199.939,371.206,213.249,354.842,213.249z M184.776,109.941c-0.648,0-1.176,0.527-1.176,1.176v72.459
		c0,0.648,0.527,1.176,1.176,1.176h170.068c0.648,0,1.176-0.527,1.176-1.176v-72.459c0-0.648-0.527-1.176-1.176-1.176H184.776z"/>
	<path style="fill:#11544F;" d="M354.842,450.305c-7.869,0-14.249-6.381-14.249-14.25v-11.501H199.024v10.076
		c0,7.869-6.381,14.25-14.249,14.25s-14.249-6.381-14.249-14.25v-11.27c0-15.056,12.25-27.305,27.306-27.305h143.954
		c15.056,0,27.305,12.249,27.305,27.305v12.695C369.092,443.924,362.712,450.305,354.842,450.305z"/>
	<path style="fill:#11544F;" d="M326.808,275.035H212.812c-7.869,0-14.249-6.381-14.249-14.249c0-7.869,6.381-14.249,14.249-14.249
		h113.996c7.869,0,14.25,6.381,14.25,14.249C341.057,268.654,334.676,275.035,326.808,275.035z"/>
	<path style="fill:#11544F;" d="M326.808,336.27H212.812c-7.869,0-14.249-6.381-14.249-14.249c0-7.869,6.381-14.25,14.249-14.25
		h113.996c7.869,0,14.25,6.381,14.25,14.25C341.057,329.889,334.676,336.27,326.808,336.27z"/>
</g>
<g>
</g>
<g>
</g>
<g>
</g>
<g>
</g>
<g>
</g>
<g>
</g>
<g>
</g>
<g>
</g>
<g>
</g>
<g>
</g>
<g>
</g>
<g>
</g>
<g>
</g>
<g>
</g>
<g>
</g>
</svg>
